<svg version="1.1"
	 id="svg18555" inkscape:version="0.48.4 r9939" sodipodi:docname="JWT-Logo.svg" xmlns:cc="http://creativecommons.org/ns#" xmlns:dc="http://purl.org/dc/elements/1.1/" xmlns:inkscape="http://www.inkscape.org/namespaces/inkscape" xmlns:rdf="http://www.w3.org/1999/02/22-rdf-syntax-ns#" xmlns:sodipodi="http://sodipodi.sourceforge.net/DTD/sodipodi-0.dtd" xmlns:svg="http://www.w3.org/2000/svg"
	 xmlns="http://www.w3.org/2000/svg" xmlns:xlink="http://www.w3.org/1999/xlink" x="0px" y="0px" viewBox="0 0 1257.3 520"
	 style="enable-background:new 0 0 1257.3 520;" xml:space="preserve">
<style type="text/css">
	.st0{fill:#95A1AA;}
</style>
<sodipodi:namedview  bordercolor="#666666" borderopacity="1.0" fit-margin-bottom="0" fit-margin-left="0" fit-margin-right="0" fit-margin-top="0" id="base" inkscape:current-layer="layer1" inkscape:cx="628.64" inkscape:cy="260" inkscape:document-units="px" inkscape:pageopacity="0.0" inkscape:pageshadow="2" inkscape:window-height="990" inkscape:window-maximized="1" inkscape:window-width="1680" inkscape:window-x="-4" inkscape:window-y="-4" inkscape:zoom="1.2527502" pagecolor="#ffffff" showgrid="false">
	</sodipodi:namedview>
<g id="layer1" transform="translate(-131.46211,226.32049)" inkscape:groupmode="layer" inkscape:label="Ebene 1">
	<g id="g8132" transform="matrix(16.928324,0,0,-16.928324,286.9791,123.41906)">
		<path id="path8134" inkscape:connector-curvature="0" class="st0" d="M0,0v20.1h-2.6V0.9c0-3.8-1-8-6-8.1v-2.2C-3.4-9.4,0-5.9,0,0
			"/>
	</g>
	<g id="g8136" transform="matrix(16.928324,0,0,-16.928324,961.89622,-216.32049)">
		<path id="path8138" inkscape:connector-curvature="0" class="st0" d="M0,0h-2.5l-6.5-17.5l-3.7,9.4L-9.7,0h-2.5L-14-4.9L-16,0
			h-2.7l3.4-8.4l-3.4-9.1L-25.6,0h-2.7l8.9-22.2h1.4l4,10.6l4.2-10.6h1.4L0,0z"/>
	</g>
	<g id="g8140" transform="matrix(16.928324,0,0,-16.928324,1378.741,-178.48568)">
		<path id="path8142" inkscape:connector-curvature="0" class="st0" d="M0,0v2.2h-16.7V0h7.1v-20H-7l0,20H0z"/>
	</g>
</g>
</svg>
