<svg id="Layer_1" data-name="Layer 1" xmlns="http://www.w3.org/2000/svg" viewBox="0 0 499.7 419.24"><defs><style>.cls-1{fill:#364548;}.cls-2{fill:#22a0c8;}.cls-3{fill:#37b1d9;}.cls-4{fill:#1b81a5;}.cls-5{fill:#1d91b4;}.cls-6{fill:#23a3c2;}.cls-7{fill:#34bbde;}.cls-8{fill:#d3ecec;}.cls-9{fill:#bdd9d7;}</style></defs><title>docker</title><path class="cls-1" d="M75,340.3V308.6c0-4.2,2.6-7.5,6.9-7.5h1.2c4.3,0,6.9,3.4,6.9,7.5v67c0,16.3-8,29.3-22,37.6A41.45,41.45,0,0,1,46.8,419H43.6c-16.4,0-29.4-8.1-37.7-22.2A40.94,40.94,0,0,1,0,375.5v-3c0-16.4,8.1-29.4,22.2-37.7A42.17,42.17,0,0,1,43.6,329h3c11.1,0,20.5,4.3,28.4,11.3ZM15.5,373.7c0,11.9,5.7,20.8,16.1,26.4a28,28,0,0,0,13.5,3.5c11.6,0,20.3-5.5,26.2-15.3a28.13,28.13,0,0,0,4.1-14.9c0-10.3-4.9-18.3-13.1-24.2a28.28,28.28,0,0,0-16.8-5.4c-12.7,0-21.8,6.4-27.3,17.8a26.18,26.18,0,0,0-2.7,12.1Zm128-44.7h2.1c17.5,0,30.8,8.5,39.2,23.8a40.38,40.38,0,0,1,5.2,19.8v3c0,16.4-8.1,29.4-22.2,37.7a41.81,41.81,0,0,1-21.3,5.8h-3c-16.4,0-29.4-8.1-37.7-22.2a42.08,42.08,0,0,1-5.8-21.3v-3c0-16.4,8.1-29.3,22.2-37.7a40,40,0,0,1,21.3-5.9Zm-28.9,44.7c0,11.5,5.6,20,15.4,25.9a28.13,28.13,0,0,0,14.9,4.1c11.4,0,19.8-5.8,25.6-15.4a28.13,28.13,0,0,0,4.1-14.9c0-10.7-5.2-18.9-14-24.8a28.47,28.47,0,0,0-16-4.9c-12.7,0-21.8,6.4-27.3,17.8a26.88,26.88,0,0,0-2.7,12.2Zm138.3-29c-2.3-1.1-6.6-1.4-9.1-1.5-12.7-.5-21.9,6.7-27.3,17.9a27.59,27.59,0,0,0-2.7,12.3c0,13.1,6.9,22.2,18.5,27.8,4.3,2,9.8,2.4,14.4,2.4,4.1,0,9.9-2.5,13.5-4.2l.6-.3h2.9l.3.1c3.4.7,6,2.9,6,6.6v1.5c0,9.3-16.8,11.4-23.3,11.8-22.7,1.6-39.7-11-46.1-32.7A39.75,39.75,0,0,1,199,375v-3.1c0-16.5,8.1-29.6,22.2-38a41.3,41.3,0,0,1,21.4-5.9h3a38.37,38.37,0,0,1,22.2,6.9l.5.4.3.6a8.24,8.24,0,0,1,1.3,4v1.4c0,3.9-2.9,6-6.4,6.7l-.3.1h-.9c-2.2-.1-7.4-2.5-9.4-3.4ZM302,355.1c5.8-5.9,11.7-11.8,17.6-17.6,1.7-1.6,7.9-8.5,10.4-8.5h2.7l.3.1c3.4.7,6,2.9,6,6.6v1.5c0,2.5-2.9,5.5-4.6,7.2-3.5,3.7-7.1,7.3-10.6,10.9L305.6,374c7.8,7.9,15.6,15.9,23.4,23.8,2.2,2.2,4.3,4.4,6.4,6.7a24.93,24.93,0,0,1,2.5,2.9,6,6,0,0,1,1.1,3.4v1.6l-.1.4c-.8,3.5-3,6.3-6.8,6.3h-1.2c-2.5,0-5.3-2.8-7-4.5-3.5-3.3-6.9-6.9-10.3-10.3L302,392.8v18.6c0,4.2-2.6,7.6-6.9,7.6h-1.2c-4.3,0-6.9-3.4-6.9-7.6V308.6c0-4.2,2.6-7.6,6.9-7.6h1.2c4.3,0,6.9,3.4,6.9,7.6v46.5ZM490,329h2.1a7.19,7.19,0,0,1,7.6,7.6c0,6.3-6,7.9-11.2,7.9-6.8,0-13.3,4.1-18,8.8-5.9,5.8-8.4,13.2-8.4,21.3v36.8c0,4.2-2.6,7.6-7,7.6h-2c-4.4,0-7-3.4-7-7.6V372.5c0-14.9,7.3-27.1,19.5-35.7A41.7,41.7,0,0,1,490,329ZM382.7,401.8c5.5,1.9,11.8,1.6,17.4.7,2.9-1.2,10.3-4.5,13-4l.4.1.4.2a8.47,8.47,0,0,1,4.1,3.6c2,4,1,7.9-2.9,10.2l-1.3.7c-14.4,8.3-29.6,7.1-43.9-.6A40.52,40.52,0,0,1,354,396.8l-.9-1.6c-9.2-16-8-32.8,2.4-47.9a42.42,42.42,0,0,1,13.8-12.5l2.1-1.2c13.5-7.8,28-7.3,41.9-.4A41.25,41.25,0,0,1,431,349.6l.8,1.3c3,5.2-.9,9.8-4.9,12.9-4.7,3.6-9.4,8-13.9,11.9-10.2,8.7-20.2,17.4-30.3,26.1Zm-13-9.2,33.7-28.9c3.8-3.3,8-6.7,11.8-10.2-3-3.8-8.1-6.6-12.5-8.3-8.7-3.3-17.3-2.2-25.3,2.4-10.5,6.1-14.9,15.7-14.6,27.7a27.09,27.09,0,0,0,3.9,13.3C367.7,390,368.7,391.4,369.7,392.6ZM288,89h45v46h22.6a99.31,99.31,0,0,0,31-5.2,84.34,84.34,0,0,0,15.1-6.9c-6.3-8.3-9.5-18.8-10.5-29.1-1.3-14,1.5-32.3,10.9-43.3l4.7-5.5,5.6,4.5c14.1,11.4,25.9,27.3,28,45.5,16.9-5,36.8-3.8,51.8,4.9l6.1,3.6-3.2,6.3c-12.6,24.9-39,32.6-64.8,31.2-38.6,97-122.7,143-224.7,143-52.7,0-101-19.9-128.5-67l-.5-.8-4-8.2c-9.3-20.7-12.4-43.5-10.3-66.2l.6-6.8H101V90h44V45h89V0h54V89"/><path class="cls-2" d="M432.8,106.8c3-23.3-14.4-41.6-25.2-50.2-12.4,14.4-14.4,52.1,5.1,68-10.9,9.7-33.9,18.5-57.4,18.5H69.2c-2.3,24.4,2,46.9,11.8,66.2l3.2,5.9c2.1,3.5,4.3,6.8,6.7,10.1,11.7.8,22.5,1,32.4.8h.1s35.4-2.9,47.5-7.1a3.38,3.38,0,0,1,4.3,2.3,3.45,3.45,0,0,1-2.1,4.2c-1.6.6-5,1.6-5,1.6h0a149.85,149.85,0,0,1-32.8,5.3c.8,0-.8.1-.8.1-.4,0-1,.1-1.5.1-5.2.3-10.8.4-16.5.4-6.2,0-12.4-.1-19.3-.5l-.2.1c23.8,26.8,61.1,42.9,107.9,42.9,98.9,0,182.8-43.9,220-142.3,26.4,2.7,51.7-4,63.2-26.5-18.4-10.6-42-7.2-55.6-.4"/><path class="cls-3" d="M432.8,106.8c3-23.3-14.4-41.6-25.2-50.2-12.4,14.4-14.4,52.1,5.1,68-10.9,9.7-33.9,18.5-57.4,18.5H86.1c-1.2,37.4,12.7,65.8,37.3,83h.1s35.4-2.9,47.5-7.1a3.38,3.38,0,0,1,4.3,2.3,3.45,3.45,0,0,1-2.1,4.2c-1.6.6-5,1.6-5,1.6h0a157.52,157.52,0,0,1-33.7,5.6l-.3-.3c33.7,17.3,82.5,17.2,138.4-4.3,62.8-24.1,121.2-70,161.9-122.6l-1.8.9"/><path class="cls-4" d="M68.7,172a116.76,116.76,0,0,0,11.4,36.9l3.3,6a113,113,0,0,0,6.8,10.2c11.8.8,22.7,1,32.7.8,19.6-.4,35.6-2.7,47.7-7a3.42,3.42,0,0,1,4.3,2.3,3.61,3.61,0,0,1-2.1,4.3c-1.6.6-3.3,1.1-5,1.6h0a157.9,157.9,0,0,1-33.8,5.5,9.7,9.7,0,0,0-1.7.1c-5.2.3-10.8.5-16.5.5-6.3,0-12.7-.1-19.6-.5,24,26.9,61.7,43.2,108.7,43.2,85.1,0,159.2-32.3,202.2-103.7H69"/><path class="cls-5" d="M87.9,172c5.1,23.2,17.3,41.4,35.1,53.8,19.6-.4,35.6-2.7,47.7-7a3.42,3.42,0,0,1,4.3,2.3,3.61,3.61,0,0,1-2.1,4.3c-1.6.6-3.3,1.1-5,1.6h0a159.87,159.87,0,0,1-34.1,5.5c33.8,17.4,82.8,17.1,139-4.5,34-13.1,66.8-32.5,96.2-56H88"/><path class="cls-6" d="M108,97h39v39H108Zm3,3h3v32h-3Zm6,0h3v32h-3V100Zm6,0h3v32h-3Zm6,0h3v32h-3Zm6,0h3v32h-3V100Zm5,0h3v32h-3Zm12-48h39V91H152V52Zm4,3h3V87h-3Zm6,0h3V87h-3V55Zm6,0h3V87h-3Zm5,0h3V87h-3Zm6,0h3V87h-3Zm6,0h3V87h-3Z"/><path class="cls-7" d="M152,97h39v39H152V97Zm4,3h3v32h-3Zm6,0h3v32h-3V100Zm6,0h3v32h-3Zm5,0h3v32h-3Zm6,0h3v32h-3Zm6,0h3v32h-3Z"/><path class="cls-6" d="M197,97h39v39H197Zm4,3h3v32h-3Zm5,0h3v32h-3Zm6,0h3v32h-3Zm6,0h3v32h-3Zm6,0h3v32h-3Zm6,0h3v32h-3Z"/><path class="cls-7" d="M197,52h39V91H197Zm4,3h3V87h-3Zm5,0h3V87h-3Zm6,0h3V87h-3Zm6,0h3V87h-3Zm6,0h3V87h-3Zm6,0h3V87h-3Zm12,42h39v39H242Zm3,3h3v32h-3Zm6,0h3v32h-3Zm6,0h3v32h-3Zm6,0h3v32h-3Zm6,0h3v32h-3Zm5,0h3v32h-3Z"/><path class="cls-6" d="M242,52h39V91H242Zm3,3h3V87h-3Zm6,0h3V87h-3Zm6,0h3V87h-3Zm6,0h3V87h-3Zm6,0h3V87h-3Zm5,0h3V87h-3Z"/><path class="cls-7" d="M242,7h39V46H242Zm3,4h3V43h-3V11Zm6,0h3V43h-3V11Zm6,0h3V43h-3V11Zm6,0h3V43h-3V11Zm6,0h3V43h-3V11Zm5,0h3V43h-3V11Z"/><path class="cls-6" d="M286,97h39v39H286Zm4,3h3v32h-3V100Zm6,0h3v32h-3V100Zm5,0h3v32h-3Zm6,0h3v32h-3Zm6,0h3v32h-3Zm6,0h3v32h-3Z"/><path class="cls-8" d="M188.9,198.3a10.65,10.65,0,1,1,.3,21.3h-.3a10.63,10.63,0,0,1-10.5-10.8,10.5,10.5,0,0,1,10.5-10.5"/><path class="cls-1" d="M188.9,201.3a8.68,8.68,0,0,1,2.8.5,3.12,3.12,0,0,0-1.1,4.3,3.15,3.15,0,0,0,2.7,1.6,3.11,3.11,0,0,0,2.7-1.6,7.64,7.64,0,1,1-10-4.1,5.92,5.92,0,0,1,2.9-.7M0,176H496.7c-10.8-2.7-34.2-6.4-30.4-20.6-19.7,22.8-67.1,16-79.1,4.7-13.3,19.3-90.9,12-96.3-3.1-16.7,19.6-68.5,19.6-85.2,0-5.4,15.1-83,22.4-96.3,3.1-12,11.2-59.4,18-79.1-4.7C34.2,169.6,10.8,173.3,0,176"/><path class="cls-9" d="M217.3,275.2c-26.4-12.5-41-29.6-49-48.2q-14.7,4.2-35.4,5.4c-5.2.3-10.6.4-16.3.4-6.6,0-13.5-.2-20.8-.6,24.3,24.2,54.1,42.9,109.3,43.2,4.1,0,8.1,0,12.2-.2"/><path class="cls-8" d="M178,244.2a90.3,90.3,0,0,1-9.8-17.2q-14.7,4.2-35.4,5.4c9.5,5.1,23,9.8,45.2,11.8"/></svg>