<?xml version="1.0" encoding="utf-8"?>
<!-- Generator: Adobe Illustrator 22.0.0, SVG Export Plug-In . SVG Version: 6.00 Build 0)  -->
<svg version="1.1" id="Layer_1" xmlns="http://www.w3.org/2000/svg" xmlns:xlink="http://www.w3.org/1999/xlink" x="0px" y="0px"
	 viewBox="0 0 2500 1733" style="enable-background:new 0 0 2500 1733;" xml:space="preserve">
<style type="text/css">
	.st0{fill:none;}
	.st1{fill:#5D87A1;}
	.st2{fill:#F8981D;}
</style>
<path class="st0" d="M0,0h2500v1733H0V0z"/>
<path class="st1" d="M607.1,1581.7h-95.9c-3.4-162.1-12.7-314.5-28-457.2h-0.9l-146.2,457.2H263l-145.3-457.2h-0.8
	c-10.8,137.1-17.6,289.5-20.4,457.2H8.7c5.6-204,19.8-395.2,42.5-573.7h119.2l138.6,421.7h0.9L449.2,1008h114
	c25,209.3,39.7,400.7,44.2,574.2 M1024.6,1158.8c-39.4,212.3-91.1,366.6-155.1,463c-49.9,74.1-104.6,111.2-164.2,111.2
	c-15.9,0-35.5-4.8-58.4-14.3v-51.2c11.1,1.6,24.4,2.6,39.7,2.6c27.8,0,50.2-7.7,67.2-23c20.4-18.7,30.6-39.7,30.6-62.9
	c0-15.9-7.9-48.5-23.8-97.8l-105.5-327.8h94.4l75.7,245.2c17,55.6,24.1,94.5,21.3,116.6c41.4-110.6,70.3-231.1,86.8-360.4h91.3
	V1158.8L1024.6,1158.8z"/>
<path class="st2" d="M2304,1581.7H2030V1008h92.3v504.1H2304V1581.7z M1959.2,1596.3l-105.6-52.1c9.4-7.7,18.3-16,26.4-25.6
	c44.9-52.7,67.2-130.7,67.2-233.9c0-190-74.5-285-223.7-285c-73.1,0-130.2,24.1-171,72.3c-44.8,52.7-67.2,130.4-67.2,233.1
	c0,100.9,19.8,175,59.5,222c36.3,42.5,91,63.8,164.2,63.8c27.3,0,52.4-3.3,75.2-10.1l137.4,80L1959.2,1596.3z M1617.2,1467.6
	c-23.3-37.4-34.9-97.5-34.9-180.3c0-144.6,43.9-217,131.9-217c46,0,79.7,17.3,101.2,51.9c23.2,37.5,34.9,97,34.9,178.6
	c0,145.8-44,218.7-131.8,218.7C1672.4,1519.5,1638.8,1502.2,1617.2,1467.6 M1445.3,1423.3c0,48.7-17.9,88.6-53.6,119.9
	c-35.7,31.2-83.6,46.8-143.7,46.8c-56.2,0-110.6-17.9-163.3-53.6l24.7-49.3c45.4,22.7,86.4,34,123.3,34c34.6,0,61.6-7.7,81.3-22.9
	c19.6-15.3,31.3-36.7,31.3-63.8c0-34.1-23.8-63.3-67.4-87.7c-40.2-22.1-120.7-68.3-120.7-68.3c-43.6-31.8-65.5-65.9-65.5-122.2
	c0-46.5,16.3-84.1,48.9-112.7c32.6-28.7,74.7-43,126.3-43c53.3,0,101.8,14.3,145.4,42.5l-22.1,49.3c-37.3-15.9-74.2-23.8-110.5-23.8
	c-29.4,0-52.2,7.1-68,21.3c-15.9,14.2-25.8,32.3-25.8,54.5c0,33.9,24.3,63.5,69.1,88.4c40.8,22.1,123.3,69.1,123.3,69.1
	C1422.9,1333.7,1445.3,1367.5,1445.3,1423.3"/>
<path class="st1" d="M2418,815.9c-55.5-1.4-98.5,4.2-134.6,19.4c-10.4,4.2-27,4.2-28.4,17.3c5.6,5.6,6.3,14.6,11.2,22.2
	c8.3,13.9,22.8,32.5,36.1,42.3c14.5,11.1,29.1,22.2,44.4,31.9c27,16.7,57.6,26.4,83.9,43c15.3,9.7,30.6,22.2,45.9,32.6
	c7.5,5.6,12.4,14.6,22.2,18v-3.9c-4.8-6.1-6.2-15-10.9-21.8l-20.5-19.7c-19.8-26.6-44.4-49.8-70.9-68.8
	c-21.8-15-69.5-35.5-78.4-60.6l-1.4-1.4c15-1.4,32.8-6.8,47-11c23.2-6.1,44.3-4.7,68.1-10.8c10.9-2.7,21.8-6.2,32.8-9.5v-7.7
	c-12.6-12.5-21.5-29.1-34.7-41c-35.4-30.5-74.3-60.4-114.6-85.4c-21.6-13.9-49.3-22.9-72.3-34.7c-8.3-4.2-22.2-6.2-27.1-13.2
	c-12.5-15.3-19.5-35.4-28.5-53.5c-20.1-38.2-39.6-80.5-56.9-120.9c-12.5-27.1-20.2-54.1-35.4-79.1
	c-71.6-118-149.3-189.5-268.8-259.7c-25.7-14.6-56.2-20.8-88.8-28.5l-52.1-2.8c-11.1-4.9-22.3-18.1-32-24.3
	c-39.6-25-141.7-79.1-170.8-7.6c-18.8,45.2,27.8,89.6,43.8,112.5c11.8,15.9,27.1,34,35.4,52.1c4.9,11.8,6.3,24.3,11.2,36.8
	c11.1,30.6,21.5,64.6,36.1,93.1c7.6,14.5,15.9,29.8,25.7,43c5.6,7.7,15.3,11.1,17.4,23.6c-9.7,13.8-10.4,34.7-16,52.1
	c-25,78.5-15.2,175.7,20.2,233.3c11.1,17.4,37.5,55.6,72.9,40.9c31.3-12.5,24.4-52.1,33.4-86.8c2.1-8.4,0.7-13.9,4.9-19.4v0.8
	c9.7,19.4,19.6,38.1,28.6,57.6c21.7,34,59.4,69.4,90.8,92.9c16.7,12.6,30,34,51,41.7v-2.1h-1.4c-4.2-6.2-10.5-9-16-13.8
	c-12.6-12.5-26.6-27.8-36.3-41.6c-29.3-38.9-55.2-81.9-78.2-126.3c-11.3-21.5-21-45.1-30-66.6c-4.2-8.3-4.2-20.8-11.2-25
	c-10.5,15.3-25.8,28.5-33.5,47.1c-13.3,29.9-14.7,66.7-19.6,104.9l-2.7,1.3c-22.3-5.6-30-28.4-38.4-47.8
	c-20.9-49.3-24.4-128.4-6.3-185.3c4.9-14.5,25.9-60.4,17.5-74.2c-4.2-13.3-18.2-20.8-25.9-31.3c-9-13.2-18.9-29.8-25.2-44.4
	c-16.8-38.8-25.2-81.9-43.2-120.7c-8.4-18.1-23.1-36.8-34.9-53.5c-13.3-18.7-28-31.9-38.5-54.1c-3.5-7.6-8.4-20.1-2.8-28.4
	c1.4-5.6,4.2-7.7,9.8-9c9.1-7.6,34.9,2.1,44,6.2c25.9,10.4,47.6,20.1,69.2,34.7c9.8,7,20.3,20.2,32.8,23.6h16.2
	c22.2,4.8,47.1,1.3,68,7.6c36.8,11.8,70.1,29.1,99.9,47.8c90.9,57.6,165.8,139.5,216.4,237.3c8.3,15.9,11.8,30.5,19.4,47.2
	c14.6,34,32.7,68.7,47.2,102c14.6,32.6,28.5,65.9,49.3,93c10.4,14.6,52.1,22.2,70.8,29.8c13.8,6.2,35.4,11.8,47.9,19.4
	c23.6,14.5,47.1,31.2,69.3,47.2c11.1,8.3,45.8,25.7,47.8,39.6 M1711.9,213.6c-9.6-0.1-19.1,1.1-28.4,3.5v1.4h1.3
	c5.6,11.1,15.3,18.8,22.2,28.5c5.6,11.1,10.4,22.2,15.9,33.3l1.3-1.4c9.8-6.9,14.7-18,14.7-34.7c-4.2-4.9-4.9-9.7-8.4-14.6
	C1726.5,222.6,1717.5,219.1,1711.9,213.6"/>
<path class="st2" d="M2484.4,1583.1h15.6v-71h-21.7l-17.7,48.5l-19.2-48.5h-20.9v71h12.8v-54h0.8l20,54h10.4l20-54L2484.4,1583.1
	L2484.4,1583.1z M2369.4,1581.7h15.6v-58.2h18.5v-11.4h-55.4v11.4h19.9l1.4,58.9V1581.7z"/>
</svg>
