<?xml version="1.0" encoding="utf-8"?>
<!-- Generator: Adobe Illustrator 22.0.0, SVG Export Plug-In . SVG Version: 6.00 Build 0)  -->
<svg version="1.1" id="Layer_1" xmlns="http://www.w3.org/2000/svg" xmlns:xlink="http://www.w3.org/1999/xlink" x="0px" y="0px"
	 viewBox="0 0 250 238" style="enable-background:new 0 0 250 238;" xml:space="preserve">
<style type="text/css">
	.st0{fill:#764ABC;}
</style>
<path class="st0" d="M1732.2,1657.3c92.3-9.6,162.2-89.1,159.1-184.5c-3.2-95.4-82.7-171.8-178.2-171.8h-6.4
	c-98.6,3.2-175,85.9-171.8,184.5c3.2,47.7,22.3,89.1,50.9,117.7c-108.2,213.2-273.6,369.1-521.7,499.5
	c-168.6,89.1-343.6,120.9-518.6,98.6c-143.2-19.1-254.5-82.7-324.5-187.7c-101.8-155.9-111.3-324.5-25.4-493.1
	c60.4-120.9,155.9-210,216.3-254.5c-12.7-41.4-31.8-111.3-41.4-162.2C-90.7,1437.8-43,1889.6,97,2102.7
	c105,159.1,318.1,257.7,553.6,257.7c63.6,0,127.2-6.4,190.9-22.3C1248.7,2258.6,1557.3,2016.8,1732.2,1657.3L1732.2,1657.3z
	 M2292.9,1263.9C2050.6,980.2,1693.6,824,1285.6,824h-50.1c-28.5-57-88.7-95-155.2-95h-6.8c-98.5,3.2-174.8,85.8-171.6,184.4
	c3.2,95.4,82.6,171.6,178,171.6h6.6c69.9-3.2,130.2-47.6,155.6-108h56.2c242.3,0,471.7,70.1,678.9,207.2
	c159.4,105.2,274.1,242.3,337.9,408c54.2,133.9,51,264.6-6.4,376.1c-89.2,168.9-239.1,261.4-436.7,261.4
	c-127.5,0-248.6-38.3-312.4-66.9c-35.1,31.9-98.8,82.9-143.4,114.8c137.1,63.7,277.3,98.8,411.2,98.8c306,0,532.3-168.9,618.4-337.9
	C2538.3,1853.6,2531.9,1534.8,2292.9,1263.9L2292.9,1263.9z M676,1711.4c3.2,95.4,82.6,171.6,178,171.6h6.4
	c98.5-3.2,174.8-85.8,171.6-184.4c-3.2-95.4-82.6-171.6-178-171.6h-6.4c-6.4,0-15.9,0-22.2,3.2C695.1,1314,641,1078.8,660.1,824.5
	c12.7-190.7,76.3-356,187.5-492.7c92.2-117.6,270.2-174.8,391-178c336.9-6.4,479.9,413.2,489.5,581.7
	c41.3,9.5,111.2,31.8,158.9,47.7C1848.9,268.3,1531,1.3,1225.9,1.3C939.8,1.3,676,207.9,571.1,513
	c-146.2,406.9-50.9,797.8,127.1,1106.2C682.4,1641.4,672.8,1676.4,676,1711.4L676,1711.4z"/>
</svg>
